# xmcd CD database file
#
# Track frame offsets:
#	150
#	29217
#	50328
#	72523
#	96580
#	133270
#	160226
#	185666
#	200798
#
# Disc length: 3041 seconds
#
# Revision: 0
# Processed by: cddbd v1.5.2PL0 Copyright (c) Steve Scherf et al.
# Submitted via: CDex 1.70beta2
#
DISCID=940bdf09
DTITLE=Jaume Gispert - Back on Track
DYEAR=2009
DGENRE=Jazz
TTITLE0=Anger
TTITLE1=Nobody Listen
TTITLE2=Iceberg (take 1)
TTITLE3=Back on Track
TTITLE4=Bushido
TTITLE5=Sunday Bloody Sunday
TTITLE6=Pimp
TTITLE7=End
TTITLE8=Iceberg (take 2)
EXTD=YEAR: 2009
EXTT0=
EXTT1=
EXTT2=
EXTT3=
EXTT4=
EXTT5=
EXTT6=
EXTT7=
EXTT8=
PLAYORDER=
